{
  "accessors": [
    {
      "bufferView": 2,
      "componentType": 5126,
      "count": 27983,
      "max": [
        35.84844207763672,
        37.79987716674805,
        16.949623107910156
      ],
      "min": [
        -36.0130615234375,
        -37.79987716674805,
        -12.375579833984375
      ],
      "type": "VEC3"
    },
    {
      "bufferView": 2,
      "byteOffset": 335796,
      "componentType": 5126,
      "count": 27983,
      "max": [
        0.9999700784683228,
        0.9998961687088013,
        1.0
      ],
      "min": [
        -0.9999805092811584,
        -0.9963659644126892,
        -0.9999876618385315
      ],
      "type": "VEC3"
    },
    {
      "bufferView": 1,
      "componentType": 5126,
      "count": 27983,
      "max": [
        0.9814169406890869,
        0.9834362268447876
      ],
      "min": [
        0.022789517417550087,
        0.013926888816058636
      ],
      "type": "VEC2"
    },
    {
      "bufferView": 0,
      "componentType": 5125,
      "count": 163143,
      "type": "SCALAR"
    }
  ],
  "asset": {
    "extras": {
      "author": "Hyperrealitystudio (https://sketchfab.com/Hyperrealitystudio)",
      "license": "CC-BY-4.0 (http://creativecommons.org/licenses/by/4.0/)",
      "source": "https://sketchfab.com/3d-models/t-shirt-7c8a4dede482474fa5a74f24c6fc5e81",
      "title": "T-shirt"
    },
    "generator": "Sketchfab-12.66.0",
    "version": "2.0"
  },
  "bufferViews": [
    {
      "buffer": 0,
      "byteLength": 652572,
      "name": "floatBufferViews",
      "target": 34963
    },
    {
      "buffer": 0,
      "byteLength": 223864,
      "byteOffset": 652572,
      "byteStride": 8,
      "name": "floatBufferViews",
      "target": 34962
    },
    {
      "buffer": 0,
      "byteLength": 671592,
      "byteOffset": 876436,
      "byteStride": 12,
      "name": "floatBufferViews",
      "target": 34962
    }
  ],
  "buffers": [
    {
      "byteLength": 1548028,
      "uri": "scene.bin"
    }
  ],
  "images": [
    {
      "uri": "textures/AM_102_035_002_baseColor.jpeg"
    }
  ],
  "materials": [
    {
      "doubleSided": true,
      "name": "AM_102_035_002",
      "pbrMetallicRoughness": {
        "baseColorTexture": {
          "index": 0
        },
        "metallicFactor": 0.0,
        "roughnessFactor": 0.8954955037119458
      }
    }
  ],
  "meshes": [
    {
      "name": "AM_102_035_003_AM_102_035_002_0",
      "primitives": [
        {
          "attributes": {
            "NORMAL": 1,
            "POSITION": 0,
            "TEXCOORD_0": 2
          },
          "indices": 3,
          "material": 0,
          "mode": 4
        }
      ]
    }
  ],
  "nodes": [
    {
      "children": [
        1
      ],
      "matrix": [
        1.0,
        0.0,
        0.0,
        0.0,
        0.0,
        2.220446049250313e-16,
        -1.0,
        0.0,
        0.0,
        1.0,
        2.220446049250313e-16,
        0.0,
        0.0,
        0.0,
        0.0,
        1.0
      ],
      "name": "Sketchfab_model"
    },
    {
      "children": [
        2
      ],
      "matrix": [
        1.0,
        0.0,
        0.0,
        0.0,
        0.0,
        0.0,
        1.0,
        0.0,
        0.0,
        -1.0,
        0.0,
        0.0,
        0.0,
        0.0,
        0.0,
        1.0
      ],
      "name": "e80f93baadf54ea9b2cf9c1d17c417cc.fbx"
    },
    {
      "children": [
        3
      ],
      "name": "RootNode"
    },
    {
      "children": [
        4
      ],
      "name": "AM_102_035_003"
    },
    {
      "mesh": 0,
      "name": "AM_102_035_003_AM_102_035_002_0"
    }
  ],
  "samplers": [
    {
      "magFilter": 9729,
      "minFilter": 9987,
      "wrapS": 10497,
      "wrapT": 10497
    }
  ],
  "scene": 0,
  "scenes": [
    {
      "name": "Sketchfab_Scene",
      "nodes": [
        0
      ]
    }
  ],
  "textures": [
    {
      "sampler": 0,
      "source": 0
    }
  ]
}
